<?xml version="1.0" encoding="utf-8"?>
<!-- Generator: Adobe Illustrator 16.0.0, SVG Export Plug-In . SVG Version: 6.00 Build 0)  -->
<!DOCTYPE svg PUBLIC "-//W3C//DTD SVG 1.1//EN" "http://www.w3.org/Graphics/SVG/1.1/DTD/svg11.dtd">
<svg version="1.1" id="Livello_1" xmlns="http://www.w3.org/2000/svg" xmlns:xlink="http://www.w3.org/1999/xlink" x="0px" y="0px"
	 width="503px" height="132.644px" viewBox="3.969 3.576 503 132.644" enable-background="new 3.969 3.576 503 132.644"
	 xml:space="preserve">
<g id="Livello_1_1_">
	<path fill="#FFFFFF" stroke="#FFFFFF" stroke-width="0.7583" stroke-miterlimit="3.8637" d="M45.516,89.987
		c0-11.956,9.77-21.649,21.823-21.649s21.825,9.693,21.825,21.649c0,11.959-9.771,21.65-21.825,21.65
		C55.286,111.637,45.516,101.946,45.516,89.987L45.516,89.987z"/>
	<polygon fill="#FFFFFF" stroke="#FFFFFF" stroke-width="0.7583" stroke-miterlimit="3.8637" points="23.605,70.55 35.927,84.104 
		67.587,56.332 97.351,85.051 110.621,72.161 68.629,29.507 	"/>
	<path fill="#FFFFFF" d="M492.84,21.212h2.958c1.556,0,1.841,1.274,1.841,1.837c0,0.715-0.326,1.33-0.904,1.547
		c0.48,0.235,0.742,0.435,0.742,1.646c0,0.949,0,1.185,0.26,1.294v0.171h-1.352c-0.082-0.309-0.131-0.644-0.131-1.312
		c0-0.886-0.051-1.229-0.954-1.229h-1.263v2.542h-1.197V21.212L492.84,21.212z M495.47,24.071c0.637,0,0.946-0.243,0.946-0.887
		c0-0.344-0.14-0.851-0.855-0.851h-1.523v1.736L495.47,24.071L495.47,24.071z"/>
	<path fill="none" stroke="#FFFFFF" stroke-width="0.7583" stroke-miterlimit="3.8637" d="M489.874,24.577
		c0-2.938,2.275-5.213,5.119-5.213c2.845,0,5.213,2.273,5.213,5.213c0,2.844-2.368,5.118-5.213,5.118
		C492.149,29.696,489.874,27.42,489.874,24.577L489.874,24.577z"/>
	<path fill="#FFFFFF" d="M145.453,51.376c-3.046-2.085-4.062-4.327-5.42-7.76c-1.565-3.954-1.91-6.654-1.169-10.842
		c0.606-3.419,0.037-8.098,3.508-8.184l34.118-0.851c4.857-0.121,6.271,5.103,7.441,9.99c1.169,4.357,0.373,6.026-0.852,9.565
		c-1.854,5.363-7.681,16.44-9.459,11.054c-0.56-1.694-0.381-2.793-0.213-4.569c0.208-2.184,1.162-3.254,1.488-5.421
		c0.296-1.97,0.923-3.241,0.213-5.102c-0.817-2.139-2.162-3.284-4.358-3.932c-1.076-0.319-2.123-1.051-2.87-0.214
		c-0.504,0.564-0.638,0.744-0.318,1.914c0.851,5.103,1.006,8.151,1.169,13.393c0.287,9.219-1.565,14.372-1.594,23.595
		c-0.019,5.685,0.009,8.903,0.531,14.562c0.354,3.83,1.062,6.165,1.275,9.777c0,0.744,0.363,2.245-0.531,2.232l-14.668-0.213
		c-3.217-0.046-2.87-4.463-3.083-7.651c-0.532-6.696,1.528-10.997,2.871-17.964c1.351-7.011,3.081-10.779,4.039-17.855
		c0.397-2.931,0.664-4.59,0.745-7.546c0.087-3.236,0.33-5.143-0.426-8.291c-0.315-1.312-0.073-2.376-1.063-3.295
		c-0.517-0.479-0.911-0.677-1.594-0.85c-1.097-0.278-1.855-0.074-2.87,0.425c-1.319,0.65-1.964,1.48-2.445,2.87
		c-0.615,1.784,0.198,2.977,0.744,4.783c0.747,2.466,2.975,3.271,3.083,5.846c0.048,1.13,0.118,1.877-0.425,2.87
		C151.784,56.522,148.095,53.183,145.453,51.376L145.453,51.376z"/>
	<path fill="#FFFFFF" d="M199.767,67.956c0.53-1.225,1.102-1.793,2.02-2.764c1.369-1.445,2.504-1.85,4.146-2.976
		c4.125-2.833,6.271-4.252,10.947-6.696c0.426-0.318,1.278-0.174,1.913-0.638c1.372-1.002,1.288-2.584,0.956-4.251
		c-0.102-0.514-0.047-0.911-0.425-1.275c-0.566-0.547-1.244-0.142-2.019,0c-1.132,0.207-1.626,0.768-2.658,1.275
		c-4.542,2.239-7.192,3.412-11.373,6.271c-0.882,0.604-1.167,1.485-2.231,1.595c-0.543,0.055-0.937,0.102-1.383-0.213
		c-0.632-0.446-0.619-1.145-0.531-1.913c0.154-1.341,1.808-1.702,2.552-2.339c3.295-3.934,14.773-8.29,15.625-9.142
		c2.976-3.083,3.825-6.803,3.932-11.585c0-1.808-0.106-2.871-0.637-4.464c-0.744-2.232-1.595-3.614-3.401-4.996
		c-1.488-0.957-2.8-1.158-4.677-1.594c-4.24-0.985-6.822-0.352-11.161,0c-2.081,0.168-3.082,0.212-5.313,0.638
		c-6.59,0.851-8.503,9.354-9.248,14.455c-1.381,10.948-1.835,15.739-1.594,25.828c0.167,6.986-0.292,11.098,1.488,17.854
		c1.025,3.896,1.762,6.098,3.614,9.675c1.476,2.847,1.937,4.932,4.464,6.908c1.665,1.302,2.775,2.299,4.889,2.339l11.373,0.212
		c1.856,0.033,3.189-0.956,4.146-2.339c2.443-3.824,2.389-5.659,3.295-9.458c1.304-5.467,1.458-8.735,1.274-14.352
		c-0.097-2.997,0.632-4.988-0.743-7.651c-0.73-1.416-1.078-2.582-2.551-3.188c-0.923-0.38-1.62-0.571-2.551-0.213
		c-1.814,0.698-0.766,2.956-0.957,4.89c-0.139,1.403-0.083,2.204-0.106,3.613c-0.028,1.782,0.191,2.797,0,4.57
		c-0.228,2.119-0.043,3.574-1.274,5.315c-0.713,1.004-1.294,1.47-2.338,2.125c-1.233,0.772-2.052,1.317-3.507,1.275
		c-1.089-0.033-1.758-0.241-2.657-0.854c-0.927-0.627-1.222-1.275-1.808-2.23c-1.048-1.709-1.175-2.928-1.595-4.889
		c-0.487-2.278-0.804-3.639-0.531-5.952C199.264,69.688,199.311,69.008,199.767,67.956z M197.322,47.974
		c-1.443-0.931-1.275-1.806-1.488-4.144c-0.105-3.295-0.541-4.271,0-6.909c0.298-1.451-0.13-2.902,1.168-3.613
		c0.91-0.499,1.629-0.125,2.657,0c1.783,0.215,2.794,0.605,4.358,1.487c2.375,1.34,3.527,2.634,4.889,4.995
		c0.325,0.562,0.63,0.85,0.744,1.487c0.246,1.389,0.532,1.809-1.701,3.189c-2.338,1.594-3.787,3.026-6.696,3.507
		C199.742,48.225,198.61,48.807,197.322,47.974z"/>
	<path fill="#FFFFFF" d="M253.973,61.261c0.852,0.322,1.41,0.492,2.021,1.169c0.789,0.877,0.679,1.723,0.955,2.869
		c0.731,3.021,0.177,4.863,0.107,7.971c-0.114,5.115,0.024,8.076-1.062,13.074c-0.759,3.484-1.051,5.588-2.764,8.717
		c-0.974,1.772-1.272,3.158-2.977,4.25c-1.104,0.707-1.905,0.792-3.188,1.062c-1.828,0.385-2.926,0.402-4.783,0.213
		c-3.119-0.32-5.1-0.805-7.547-2.764c-2.038-1.632-2.675-3.132-3.933-5.422c-2.589-4.716-2.26-8.114-3.296-13.391
		c-1.223-6.243-1.817-9.81-2.231-16.156c-0.326-5.006-0.331-7.851-0.106-12.86c0.239-5.328-0.413-8.582,1.383-13.604
		c1.83-5.121,2.231-10.31,7.759-11.586c2.87-0.637,4.973-0.848,8.185-1.062c3.434-0.23,5.454-0.702,8.822,0
		c2.285,0.477,3.805,0.568,5.632,2.02c2.889,2.293,3.497,5.136,3.403,8.821c-0.091,3.457-1.17,5.846-3.403,8.185
		c-3.612,3.402-5.311,5.566-9.353,8.29c-2.784,1.877-7.44,6.271-7.547,4.146c0-0.532-0.463-0.947-0.638-1.596
		c-0.389-1.439-0.447-2.401,0-3.825c0.563-1.798,1.884-2.267,3.082-3.721c1.124-1.364,1.997-1.971,2.87-3.508
		c0.643-1.131,1.207-1.783,1.275-3.082c0.08-1.492-0.391-2.411-1.275-3.614c-1.948-2.646-5.952-3.083-8.184-2.019
		c-1.488,0.638-1.954,3.457-2.764,5.846c-1.186,3.499-1.166,5.674-1.487,9.354c-0.472,5.369-0.872,8.539,0.212,13.817
		c0.937,4.562,1.601,7.331,4.251,11.159c1.886,2.725,2.64,6.018,5.953,6.061c1.016,0.011,1.616-0.135,2.551-0.531
		c1.089-0.467,1.699-0.885,2.443-1.809c1.309-1.618,0.932-3.139,1.17-5.209c0.255-2.223,0.479-3.552,0-5.737
		c-0.206-0.936-0.688-1.383-0.745-2.339c-0.085-1.439-0.003-2.668,1.169-3.508C251.219,60.022,252.496,60.7,253.973,61.261
		L253.973,61.261z"/>
	<path fill="#FFFFFF" d="M264.921,24.272c1.475-0.761,2.598-0.107,4.252,0c2.006,0.132,3.352-0.245,5.102,0.744
		c2.335,1.319,2.681,3.334,3.614,5.846c0.993,2.671,0.563,4.423,1.063,7.228c0.674,3.803,0.693,6.085,2.125,9.672
		c1.029,2.584,1.45,4.288,3.4,6.271c1.401,1.426,2.278,2.538,4.251,2.869c1.445,0.242,2.567,0.373,3.723-0.53
		c1.761-1.384,0.576-3.531,0.209-5.74c-0.407-2.475-1.259-3.74-2.442-5.952c-1.311-2.443-2.307-3.684-4.038-5.846
		c-1.433-1.787-2.34-3.083-3.934-4.357c-2.552-2.02-1.936-2.619-1.488-4.357c0.373-1.45,1.493-1.811,2.551-2.87
		c1.393-1.395,2.012-2.533,3.827-3.295c2.524-1.061,4.684-1.119,7.015,0.318c2.734,1.688,2.544,4.424,3.296,7.547
		c0.862,3.59,0.339,5.769,0.317,9.459l-0.317,57.289c-0.006,1.155-1.489,0.957-2.765,1.062c-4.568,0.32-3.4-0.424-7.76,0
		c-1.485,0-2.443-1.699-2.443-3.293c0-2.445,0.249-4.408,0.214-7.229c-0.08-6.253-0.495-9.808-1.701-15.942
		c-0.852-4.331-1.103-6.904-2.87-10.947c-1.062-2.431-1.262-4.248-3.295-5.953c-1.25-1.048-3.736-3.544-3.721-1.913l0.427,44.215
		c0.008,0.928-0.744,1.062-2.128,1.062c-3.082,0-4.146-0.318-7.969,0.32c-1.065,0.212-0.853-1.913-0.746-2.87
		c0.532-5.74,1.032-8.354,1.488-13.712c0.557-6.535,0.955-10.233,0.955-16.793c0-6.561-0.505-10.249-0.955-16.794
		c-0.332-4.811-0.653-7.516-0.956-12.329c-0.261-4.143-0.639-5.953-0.532-10.63C262.688,25.548,263.747,24.879,264.921,24.272
		L264.921,24.272z"/>
	<path fill="#FFFFFF" d="M338.365,44.68c-0.722-6.49,0.319-8.503-2.975-16.475c-0.64-1.595-3.296-3.721-5.104-3.934
		c-6.482-0.744-10.098,0.213-16.688,0.213c-1.381,0-2.338,0.064-3.507,0.852c-1.347,0.905-1.478,2.072-2.231,3.508
		c-1.444,2.749-1.805,4.53-2.552,7.546c-0.758,3.056-0.935,4.842-1.274,7.972c-0.703,6.429-0.495,10.125-0.106,16.581
		c0.393,6.508,0.749,10.208,2.125,16.583c1.489,6.881,2.552,11.266,5.421,17.218c0.745,1.486,1.284,2.39,2.552,3.507
		c1.31,1.151,2.338,2.126,3.934,2.126c3.825,0.213,2.551,0.532,9.991-0.212c1.275,0,1.87-1.712,2.869-2.977
		c2.51-3.172,3.043-5.601,4.252-9.46c0.949-3.033,1.112-4.848,1.7-7.973c1.17-6.209,1.857-9.74,2.231-16.049
		C339.443,56.294,339.188,52.059,338.365,44.68z M331.137,58.815c-0.188,4.423-0.63,6.903-1.381,11.267
		c-0.364,2.124-0.421,3.363-1.062,5.421c-0.492,1.579-0.64,2.976-1.594,3.933c-4.677,3.722-5.658-6.59-7.866-11.584
		c-1.167-2.637-0.771-4.594-2.339-7.016c-1.386-2.142-3.648-2.236-4.677-4.57c-0.774-1.759-0.67-2.966-0.638-4.889
		c0.035-2.106,0.431-3.275,0.955-5.315c0.74-2.87,0.607-4.979,2.659-7.121c1.54-1.607,2.021-3.295,4.994-2.764
		c1.913,0.319,3.216,0.733,4.89,1.913c1.317,0.93,1.951,1.65,2.87,2.977c1.271,1.835,1.508,3.169,2.125,5.314
		c0.686,2.384,0.859,3.799,1.062,6.271C331.336,55.047,331.241,56.414,331.137,58.815z"/>
	<path fill="#FFFFFF" d="M372.91,61.473c0.841,0.294,1.414,0.41,2.021,1.062c0.82,0.886,0.595,1.797,0.85,2.977
		c0.653,3.042,0.349,4.86,0.317,7.971c-0.047,5.079-0.071,8.01-1.167,12.968c-0.771,3.481-1.078,5.574-2.766,8.716
		c-0.974,1.814-1.246,3.241-2.975,4.357c-1.069,0.69-1.839,0.801-3.083,1.062c-1.866,0.395-2.997,0.338-4.889,0.104
		c-3.073-0.374-4.986-0.878-7.44-2.762c-2.085-1.602-2.838-3.035-4.146-5.314c-2.686-4.687-2.094-8.19-3.083-13.498
		c-1.167-6.252-1.818-9.81-2.232-16.156c-0.325-5.005-0.329-7.851-0.104-12.86c0.237-5.328-0.399-8.578,1.381-13.604
		c1.809-5.104,2.231-10.311,7.652-11.586c2.87-0.639,5.038-0.849,8.291-1.062c3.477-0.229,5.531-0.768,8.928,0
		c2.164,0.488,3.572,0.648,5.314,2.021c2.938,2.313,3.641,5.189,3.508,8.928c-0.122,3.433-1.169,5.74-3.508,8.078
		c-3.295,3.508-5.123,5.699-9.14,8.396c-2.804,1.881-7.44,6.271-7.654,4.039c0-0.425-0.387-0.955-0.53-1.594
		c-0.32-1.415-0.415-2.33,0-3.72c0.549-1.836,1.85-2.36,3.082-3.826c1.136-1.35,2.17-1.834,2.977-3.402
		c0.575-1.12,0.944-1.824,0.957-3.082c0.013-1.495-0.389-2.412-1.276-3.612c-1.929-2.613-5.634-3.189-8.077-2.021
		c-1.275,0.531-1.953,3.391-2.764,5.739c-1.217,3.532-1.182,5.737-1.489,9.46c-0.438,5.331-0.727,8.466,0.321,13.711
		c0.904,4.539,1.408,7.352,4.038,11.161c1.948,2.821,2.848,6.371,6.271,6.163c0.94-0.057,1.478-0.244,2.337-0.638
		c1.133-0.517,1.792-0.928,2.55-1.913c1.215-1.579,0.841-3.017,1.064-4.995c0.253-2.266,0.491-3.619,0-5.846
		c-0.208-0.935-0.706-1.382-0.744-2.338c-0.06-1.415,0.104-2.604,1.274-3.4C370.249,60.29,371.457,60.964,372.91,61.473
		L372.91,61.473z"/>
	<path fill="#FFFFFF" d="M414.893,80.816c0.128-4.394-0.107-6.879-0.427-11.265c-0.515-7.129-1.13-11.131-2.338-18.175
		c-0.97-5.673-1.506-8.892-2.976-14.456c-0.783-2.968-0.82-4.822-2.231-7.546c-0.703-1.358-0.84-2.468-2.125-3.295
		c-0.974-0.625-1.735-0.526-2.871-0.744c-3.337-0.641-5.632-0.319-8.716,0c-4.146,0.425-4.357,5.208-5.845,8.821
		c-2.127,5.526-3.062,9.104-4.357,15.093c-1.723,7.96-1.847,12.612-2.552,20.727c-0.698,8.023-1.062,12.754-1.062,20.619
		c0,3.403-1.274,10.523,2.233,9.034c1.062-0.424,1.95,0.413,3.081,0c2.851-1.038,0.989-4.646,1.383-7.652
		c0.402-3.093-0.896-5.256,0.637-7.972c0.979-1.736,1.994-2.45,3.613-3.613c3.648-2.625,7.973-2.444,11.16-2.868
		c1.064,0,1.064,1.594,1.17,2.551c0.104,2.338-1.271,3.281-2.232,5.312c-1.255,2.648-2.951,3.734-3.614,6.59
		c-0.552,2.384-0.424,3.721,0,6.271c0,0.638,0.695,1.362,1.489,1.382l13.815,0.32C416.488,100.05,414.675,88.353,414.893,80.816z
		 M389.385,54.245c0-3.933,1.191-6.278,3.399-9.565c0.739-1.102,0.809-2.496,2.125-2.657c1.067-0.13,2.021,0.531,2.444,1.275
		c1.594,3.083,1.622,4.024,2.339,6.696c0.883,3.291,1.062,5.526,1.487,8.608c0,1.276,0.552,2.995-0.743,3.401l-9.14,2.87
		C387.279,66.135,389.385,60.198,389.385,54.245z M401.181,70.933l-11.585,2.869c-0.77,0.19-1.809-1.062-1.486-1.381
		c2.339-2.339,9.245-4.358,12.859-5.103c0.531,0,1.54,0.622,1.701,1.488C402.854,69.801,402.165,70.69,401.181,70.933z"/>
	<path fill="#FFFFFF" d="M425.417,25.016c6.058-1.488,9.88-1.81,16.263-1.807c4.071,0.001,6.506-0.405,10.416,0.744
		c1.446,0.426,2.542,0.318,3.611,1.382c1.392,1.381,1.051,2.932,1.171,4.889c0.171,2.823-0.472,4.443-1.384,7.121
		c-0.988,2.914-1.358,4.918-3.612,7.016c-1.535,1.43-2.595,2.409-4.678,2.657c-1.501,0.18-2.735,0.412-3.825-0.637
		c-1.533-1.478-0.111-3.428,0.639-5.421c0.378-1.006,1.162-1.375,1.273-2.445c0.151-1.438-0.679-2.201-1.486-3.4
		c-1.613-2.395-3.321-3.334-6.061-4.252c-1.899-0.638-3.146-1.084-5.101-0.638c-1.354,0.31-2.337,0.496-3.19,1.594
		c-0.854,1.105-0.758,2.109-0.743,3.509c0.021,1.821,0.529,2.854,1.384,4.463c1.345,2.539,3.167,3.188,5.207,5.208
		c3.292,3.259,5.324,4.922,8.504,8.291c2.355,2.498,3.92,3.743,5.847,6.59c1.99,2.948,3.056,4.762,4.037,8.184
		c0.385,1.345,0.528,2.126,0.744,3.508c0.8,5.08,0.239,8.095-0.531,13.181c-0.646,4.264-0.746,6.868-2.656,10.733
		c-0.96,1.938-1.19,3.46-2.979,4.678c-1.778,1.212-3.612,1.062-5.42,1.062c-4.782,0-7.015,0.709-11.372-0.104
		c-1.898-0.354-3.047-0.436-4.782-1.276c-2.85-1.379-4.22-2.916-5.847-5.634c-1.964-3.279-1.879-5.752-2.126-9.564
		c-0.273-4.244,0.145-6.717,1.169-10.843c0.942-3.794,1.488-5.951,3.614-9.353c0.956-1.594,1.403-1.344,2.551-1.594
		c2.048-0.448,3.247,0.931,4.89,2.232c1.36,1.078,1.873,1.98,2.869,3.401c1.502,2.14,2.189,3.495,3.082,5.951
		c0.942,2.592,0.934,4.209,1.489,6.91c0.34,1.654,1.021,2.566,0.85,4.25c-0.113,1.121,0.12,2.188-0.85,2.766
		c-0.576,0.34-1.062,0.405-1.701,0.211c-1.117-0.343-0.869-1.607-1.382-2.657c-0.814-1.668-0.698-2.953-1.912-4.358
		c-0.792-0.914-1.234-1.882-2.445-1.912c-1.495-0.036-1.891,1.479-2.657,2.765c-0.506,0.846-0.676,1.394-0.957,2.339
		c-0.454,1.521-0.67,2.454-0.531,4.038c0.15,1.697,0.456,2.715,1.384,4.146c0.844,1.306,1.485,2.764,2.869,2.764
		c2.656,0.318,4.502,0.518,7.119-0.427c1.874-0.672,2.897-1.305,4.359-2.655c3.068-2.838,3.896-5.712,4.146-9.886
		c0.158-2.68-0.233-4.248-1.062-6.801c-1.476-4.539-3.781-6.496-6.909-10.098c-2.691-3.101-5.006-4.088-7.651-7.229
		c-4.045-4.8-6.028-7.989-8.078-13.923c-2.063-5.974-2.764-8.503-2.232-16.049C420.738,26.823,423.715,25.441,425.417,25.016
		L425.417,25.016z"/>
	<path fill="#FFFFFF" d="M492.378,81.35c0.169-4.435-0.005-6.948-0.32-11.374c-0.506-7.099-1.344-11.055-2.55-18.068
		c-0.98-5.705-1.408-8.96-2.869-14.562c-0.775-2.969-0.82-4.822-2.233-7.546c-0.702-1.357-0.84-2.468-2.125-3.295
		c-0.974-0.625-1.733-0.527-2.869-0.744c-3.339-0.64-5.634-0.319-8.716,0c-4.146,0.425-4.464,5.208-5.848,8.821
		c-2.23,5.527-3.074,9.103-4.356,15.094c-1.701,7.959-1.738,12.617-2.443,20.726c-0.699,8.025-1.169,12.756-1.169,20.619
		c0,3.401-1.17,10.523,2.23,9.143c0.957-0.532,1.952,0.403,3.083,0c2.901-1.036,1.114-4.701,1.487-7.761
		c0.379-3.09-1.075-5.242,0.424-7.97c0.963-1.748,1.998-2.45,3.615-3.616c3.711-2.673,7.972-2.441,11.371-2.869
		c0.853,0,0.959,1.597,0.959,2.553c0.316,2.337-1.206,3.216-2.126,5.207c-1.246,2.692-2.959,3.803-3.614,6.695
		c-0.54,2.385-0.318,3.826,0,6.272c0.104,0.531,0.589,1.476,1.382,1.487l13.817,0.212C493.973,100.443,492.093,88.848,492.378,81.35
		z M466.867,54.564c0-3.933,1.229-6.312,3.509-9.565c0.741-1.061,0.837-2.423,2.127-2.551c1.031-0.103,2.019,0.53,2.338,1.275
		c1.594,2.977,1.621,4.023,2.338,6.696c0.892,3.331,1.168,5.526,1.488,8.716c0.105,1.062,0.511,2.896-0.744,3.295l-9.035,2.869
		C464.828,66.589,466.867,60.623,466.867,54.564z M478.666,71.464l-11.586,2.87c-0.797,0.198-1.593-1.169-1.487-1.487
		c2.444-2.339,9.248-4.359,12.86-4.996c0.428,0,1.396,0.583,1.596,1.381C480.294,70.225,479.66,71.217,478.666,71.464z"/>
	<g>
		<path fill="#FFFFFF" d="M139.128,115.648h12.724v4.627h-7.652v2.249h6.569v4.3h-6.569v6.877h-5.071V115.648L139.128,115.648z"/>
		<path fill="#FFFFFF" d="M162.82,119.948h2.375c1.936,0,2.512,0.655,2.512,1.794c0,1.618-1.292,1.795-2.235,1.795h-2.651V119.948z
			 M157.75,133.7h5.07v-6.294h2.697c2.005,0,2.144,1.794,2.281,3.513c0.069,0.937,0.161,1.871,0.415,2.781h5.071
			c-0.461-0.834-0.484-2.984-0.553-3.867c-0.185-2.25-1.037-3.919-2.42-4.502c1.683-0.684,2.466-2.653,2.466-4.525
			c0-3.413-2.489-5.157-5.37-5.157h-9.657L157.75,133.7L157.75,133.7z"/>
		<path fill="#FFFFFF" d="M184.37,127.251l1.591-5.562h0.045l1.476,5.562H184.37z M177.433,133.7h5.094l0.738-2.579h5.231
			l0.691,2.579h5.255l-5.993-18.053h-4.955L177.433,133.7z"/>
		<path fill="#FFFFFF" d="M199.697,115.648h5.186l4.793,9.658h0.047v-9.658h4.794V133.7h-4.934l-5.047-9.859h-0.046v9.859h-4.793
			V115.648L199.697,115.648z"/>
		<path fill="#FFFFFF" d="M231.64,122.374c-0.093-0.657-0.554-2.655-2.65-2.655c-2.373,0-3.134,2.528-3.134,4.955
			c0,2.429,0.761,4.957,3.134,4.957c1.706,0,2.374-1.316,2.674-3.009h4.979c0,3.64-2.696,7.509-7.515,7.509
			c-5.323,0-8.343-4.121-8.343-9.457c0-5.688,3.273-9.456,8.343-9.456c4.518,0.025,7.007,2.631,7.444,7.156H231.64z"/>
		<path fill="#FFFFFF" d="M242.864,115.648h5.07v6.271h4.748v-6.271h5.069V133.7h-5.069v-7.154h-4.748v7.154h-5.07V115.648z"/>
		<path fill="#FFFFFF" d="M264.46,115.648h5.068V133.7h-5.068V115.648z"/>
		<path fill="#FFFFFF" d="M280.271,127.631c0,0.457,0.067,0.86,0.184,1.188c0.368,1.089,1.477,1.314,2.421,1.314
			c0.829,0,2.098-0.303,2.098-1.644c0-0.937-0.716-1.188-3.551-2.073c-2.604-0.811-5.575-1.593-5.575-5.234
			c0-4.171,3.248-5.967,6.638-5.967c3.571,0,6.729,1.493,6.868,5.892h-4.793c0.091-0.684-0.188-1.138-0.602-1.44
			c-0.416-0.328-0.991-0.454-1.499-0.454c-0.689,0-1.818,0.201-1.818,1.212c0.091,1.291,2.442,1.569,4.771,2.276
			c2.328,0.708,4.632,1.896,4.632,5.208c0,4.702-3.94,6.221-7.604,6.221c-1.867,0-7.192-0.732-7.237-6.499H280.271z"/>
		<path fill="#FFFFFF" d="M295.713,115.648h5.069V133.7h-5.069V115.648z"/>
		<path fill="#FFFFFF" d="M307.513,115.648h5.185l4.794,9.658h0.048v-9.658h4.792V133.7H317.4l-5.049-9.859h-0.044v9.859h-4.795
			L307.513,115.648L307.513,115.648z"/>
		<path fill="#FFFFFF" d="M341.139,131.855c-1.129,1.593-2.882,2.275-4.679,2.275c-4.863,0-7.859-4.147-7.859-9.28
			c0-6.876,4.403-9.633,8.112-9.633c4.193,0,6.847,2.503,7.583,6.752h-4.863c-0.185-1.314-1.199-2.251-2.396-2.251
			c-3.479,0-3.365,4.021-3.365,5.26c0,1.693,0.623,4.652,3.711,4.652c1.177,0,2.375-0.658,2.629-1.999h-2.235v-3.867h6.729v9.937
			h-3.205L341.139,131.855z"/>
		<path fill="#FFFFFF" d="M356.978,115.648h5.187l4.795,9.658h0.046v-9.658h4.794V133.7h-4.933l-5.048-9.859h-0.047v9.859h-4.794
			V115.648z"/>
		<path fill="#FFFFFF" d="M378.552,115.648h13.622v4.627h-8.553v2.249h7.769v4.3h-7.769v2.25h8.806v4.627h-13.875V115.648z"/>
		<path fill="#FFFFFF" d="M402.728,120.275h-4.61v-4.627h14.29v4.627H407.8V133.7h-5.07L402.728,120.275L402.728,120.275z"/>
		<path fill="#FFFFFF" d="M434.81,133.7h-4.932l-1.773-10.998h-0.049l-1.729,10.998h-4.954l-4.472-18.053h4.979l2.005,11.149h0.046
			l1.981-11.149h4.473l1.937,11.303h0.045l2.052-11.303h5.002L434.81,133.7z"/>
		<path fill="#FFFFFF" d="M449.261,124.673c0-4.02,1.981-4.955,3.271-4.955c1.291,0,3.273,0.937,3.273,4.955
			c0,4.021-1.982,4.957-3.273,4.957C451.243,129.63,449.261,128.694,449.261,124.673z M444.19,124.673
			c0,5.513,3.341,9.457,8.343,9.457c5.001,0,8.346-3.944,8.346-9.457c0-5.512-3.345-9.456-8.346-9.456
			C447.531,115.217,444.19,119.162,444.19,124.673z"/>
		<path fill="#FFFFFF" d="M472.192,119.948h2.375c1.938,0,2.512,0.655,2.512,1.794c0,1.618-1.29,1.795-2.234,1.795h-2.651
			L472.192,119.948L472.192,119.948z M467.122,133.7h5.07v-6.294h2.697c2.006,0,2.144,1.794,2.282,3.513
			c0.068,0.937,0.161,1.871,0.414,2.781h5.07c-0.462-0.834-0.483-2.984-0.554-3.867c-0.185-2.25-1.037-3.919-2.421-4.502
			c1.683-0.684,2.468-2.653,2.468-4.525c0-3.413-2.489-5.157-5.37-5.157h-9.658L467.122,133.7L467.122,133.7z"/>
		<path fill="#FFFFFF" d="M488.44,115.648h5.071v6.22h0.046l4.518-6.22h6.247l-5.97,7.055l6.937,10.998h-6.313l-4.057-7.028
			l-1.406,1.694v5.334h-5.071L488.44,115.648L488.44,115.648z"/>
	</g>
</g>
<g id="Livello_2">
	<path fill="#FFFFFF" stroke="#FFFFFF" stroke-width="0.9479" stroke-miterlimit="3.8637" d="M128.932,111.391v11.621
		c0,3.534-2.866,6.397-6.402,6.397H10.532c-0.46,0-0.908-0.051-1.342-0.145c0.712,2.758,3.21,4.799,6.191,4.799h111.999
		c3.535,0,6.402-2.866,6.402-6.397v-16.275"/>
	<path fill="none" stroke="#FFFFFF" stroke-width="0.9479" stroke-miterlimit="3.8637" d="M133.783,111.391H500.2
		c3.536,0,6.401-2.866,6.401-6.397V10.431c0-3.534-2.865-6.397-6.401-6.397H22.818c-3.536,0-6.401,2.863-6.401,6.397v2.333
		l-0.288-0.007h-5.597c-3.535,0-6.401,2.864-6.401,6.398v103.855c0,3.534,2.866,6.397,6.401,6.397H122.53
		c3.536,0,6.402-2.863,6.402-6.397V111.39L133.783,111.391"/>
	<path fill="none" stroke="#FFFFFF" stroke-width="0.9479" stroke-miterlimit="3.8637" d="M16.129,12.757H122.53
		c3.536,0,6.402,2.864,6.402,6.398v92.087"/>
</g>
</svg>
